<?xml version="1.0" encoding="UTF-8"?>
<svg id="Capa_1" data-name="Capa 1" xmlns="http://www.w3.org/2000/svg" version="1.1" viewBox="0 0 800 800">
  <defs>
    <style>
      .cls-1 {
        fill: #010002;
        stroke-width: 0px;
      }
    </style>
  </defs>
  <path class="cls-1" d="M617.2,618.3c-58.2,58.1-135.5,90.2-217.7,90.2-169.6,0-307.6-137.9-307.8-307.5l62.8,62.8c4.2,4.1,10.9,4.1,15,0,4.1-4.2,4.1-10.9,0-15l-83.2-83.2L3.1,448.8c-4.2,4.1-4.2,10.9,0,15,2.1,2.1,4.8,3.1,7.5,3.1s5.5-1,7.5-3.1l52.8-52.9c5.5,176.7,150.5,318.8,328.5,318.8s170.5-34.2,232.7-96.4c4.1-4.1,4.1-10.9,0-15-4-4.2-10.8-4.2-14.9,0Z"/>
  <path class="cls-1" d="M796.9,336.2c-4.1-4.1-10.8-4.1-15,0l-52.8,52.8c-5.6-176.7-150.6-318.7-328.5-318.7s-170.6,34.2-232.8,96.4c-4.2,4.1-4.2,10.9,0,15,4.1,4.2,10.9,4.2,15,0,58.2-58.1,135.5-90.2,217.7-90.2,169.6,0,307.6,137.9,307.8,307.5l-62.8-62.8c-4.1-4.1-10.9-4.1-15,0-4.1,4.2-4.1,10.9,0,15l83.2,83.2,83.2-83.2c4.1-4.1,4.1-10.9,0-15Z"/>
</svg>