<?xml version="1.0" encoding="UTF-8"?>
<svg id="_2" data-name="2" xmlns="http://www.w3.org/2000/svg" version="1.1" viewBox="0 0 800 401">
  <defs>
    <style>
      .cls-1 {
        fill: #1431ad;
        stroke-width: 0px;
      }
    </style>
  </defs>
  <path class="cls-1" d="M188.7,70.7C98.7,99.1,30.5,150.5,0,195.4c30.8,45.3,99.9,97.1,191.1,125.5,22.9-35.5,36.2-77.8,36.2-123.2,0-47-14.2-90.7-38.6-127ZM122.7,201c-13,0-23.5-10.5-23.5-23.5s10.5-23.6,23.5-23.6,23.6,10.5,23.6,23.6-10.5,23.5-23.6,23.5Z"/>
  <path class="cls-1" d="M777.2,198.7c-1.6-5.1-1.6-10.5,0-15.6l21.6-67c3.2-9.9,0-20.7-7.9-27.3-8-6.6-19.1-7.8-28.3-2.9l-127.1,67.7c-62.6-45.3-125.1-73.8-185.3-89.4-1-12-4.2-27.4-13.6-39.2-14.7-18.4-108,8.5-153.4,26.2-24.6,2.5-48.2,6.9-70.6,12.7,24.4,38.8,38.5,84.7,38.5,133.9s-13.2,92-36.1,130c33.3,8.4,69.1,13.7,106.8,14.4,1.4,2.2,3.2,4.2,5.4,5.9l50.1,40c10.6,8.5,26.1,7.1,35.1-3.1l7.2-8.2c5.3-6.1,7.4-14.4,5.6-22.3-1.8-7.9-7.3-14.5-14.7-17.7l-2.1-.9c74.9-12.5,154.5-44.2,234.2-103.5l120,63.9c9.1,4.9,20.3,3.7,28.3-3,7.9-6.6,11.1-17.5,7.9-27.3l-21.6-67Z"/>
</svg>